<svg width="24" height="24" viewBox="0 0 22 22" fill="none" xmlns="http://www.w3.org/2000/svg">
<path d="M1.0503 11.6108C1.02922 11.5581 2.34688 10.1877 3.97024 8.58545C5.58306 6.97263 6.94289 5.69713 6.9956 5.7393C7.03776 5.78146 7.97594 7.57349 9.09332 9.71337C10.2002 11.8533 11.1489 13.6558 11.2016 13.7191C11.2648 13.7823 11.2965 13.2869 11.2965 12.4541C11.2965 11.6951 11.3386 10.9045 11.4546 10.2931H13.6155V18.0937L4.39189 18.1043L2.73691 14.9102C1.81981 13.1498 1.06084 11.6741 1.0503 11.6108Z" fill="#6B7684"/>
<path d="M9.24075 6.6037L13.1937 5.30712L17.1467 4L17.1784 8.57493C17.1889 11.5265 17.2416 13.1393 17.3049 13.1393C17.3681 13.1393 17.7371 12.5068 18.1482 11.7373C18.5487 10.9783 18.8966 10.2932 18.9177 10.2405C18.9388 10.1772 19.4131 10.3564 20.9943 11.1365L19.9824 13.1077C19.4237 14.204 18.612 15.7641 17.4103 18.0937H13.6154V10.2932H11.4544L11.3806 10.6832C11.3385 10.9046 11.2963 11.6846 11.2963 12.4225C11.2963 13.1709 11.2647 13.7507 11.212 13.7296C11.1698 13.7085 10.6849 12.7704 9.11426 9.60798L9.24075 6.6037Z" fill="#BEC2C7"/>
</svg>
